<svg viewBox="0 0 840 237" xmlns="http://www.w3.org/2000/svg" xml:space="preserve" style="fill-rule:evenodd;clip-rule:evenodd;stroke-linejoin:round;stroke-miterlimit:2"><path d="M67.717 154.831c-6.719 4.952-13.707 10.164-20.255 15.265-.383 10.799-1.205 18.583-2.505 29.316-1.334 11.016-1.317 28.932 1.644 32.336 3.32 3.817 9.02 5.622 11.989 3.233 2.887-2.323 4.914-22.362 6.222-33.165 2.009-16.583 2.935-30.283 2.905-46.985Zm-7.572-93.744a167.59 167.59 0 0 0-19.651 3.885l.077.65c3.048 25.205 6.044 44.449 6.902 69.75 6.775-5.045 13.444-9.917 19.328-14.259-1.32-21.482-3.882-36.929-6.458-58.347l-.198-1.679ZM38.009 38.105a383.884 383.884 0 0 1 19.641-4.924c-.011-5.311-.081-31.41-3.447-32.707-4.318-1.663-17.712 1.259-19.605 5.481-2.755 6.145 1.156 10.102 3.259 30.873l.152 1.277Zm32.346 154.172a390.903 390.903 0 0 1-1.054 9.719c-.35 2.891-.752 6.439-1.208 10.133 20.769 3.566 36.083 4.72 46.796 3.355 4.536-.578 8.592-2.935 9.013-7.488.42-4.554-2.23-6.947-6.783-7.367-7.02-.649-25.947-4.59-46.764-8.352Zm-30.591 15.716c.144-3.119.386-6.134.704-8.762.452-3.729.845-7.464 1.183-11.202-6.78-1.352-11.519-2.978-16.158-4.013 1.937-2.037 4.162-4.252 6.345-6.151 19.277-16.77 51.542-38.824 64.137-49.028 3.527-2.858 5.828-5.185 6.787-6.521 1.178-1.642 1.694-3.124 1.943-4.224.011-.046.92-7.49-6.708-12.049-4.956-2.963-15.314-10.893-30.021-19.905.912 8.265 1.746 16.534 2.431 24.808 3.952 2.407 4.59 4.609 7.736 6.505-17.768 13.595-54.323 38.874-69.06 54.4-5.039 5.31-7.867 10.158-8.667 13.521-.966 4.064-.177 7.459 1.612 10.221.548.847 2.998 3.719 8.495 5.323 5.101 1.489 15.625 4.405 29.241 7.077Zm.161-112.164c-.872-8.431-1.854-16.858-2.868-25.28-4.137-2.661-8.118-6.767-3.721-8.11 28.393-8.673 51.437-7.646 66.827-7.375 6.419.113 11.723-5.008 11.836-11.428.113-6.42-5.007-11.723-11.427-11.836-20.578-.362-59.562 9.018-79.147 16.081-4.313 1.555-6.67 3.219-7.294 3.782-1.723 1.554-4.837 5.927-3.732 9.519 3.346 10.877 10.752 22.864 29.526 34.647Zm775.972 70.389c-3.538 3.298-4.246 13.529-.671 19.679 4.753 8.178 14.876 9.372 20.215 1.36 3.903-5.856 5.183-15.069 1.014-21.145-3.724-5.427-17.02-3.192-20.558.106ZM228.679 57.542c10.728 0 20.114 2.586 28.16 7.759 8.046 5.172 14.304 12.867 18.774 23.083 4.47 10.217 6.704 22.541 6.704 36.973 0 14.176-2.203 26.34-6.609 36.493-4.406 10.153-10.631 17.88-18.677 23.18-8.046 5.3-17.497 7.95-28.352 7.95-10.6 0-19.923-2.618-27.969-7.855-8.046-5.236-14.303-12.898-18.773-22.988-4.47-10.089-6.705-22.285-6.705-36.589 0-14.176 2.235-26.372 6.705-36.589 4.47-10.217 10.759-18.007 18.869-23.371 8.11-5.364 17.401-8.046 27.873-8.046Zm0 9.77c-12.771 0-22.86 4.885-30.268 14.655-7.407 9.77-11.11 24.297-11.11 43.581 0 19.029 3.735 33.397 11.206 43.103 7.471 9.706 17.529 14.559 30.172 14.559 13.154 0 23.371-4.821 30.651-14.464 7.279-9.642 10.919-24.105 10.919-43.389 0-19.412-3.672-33.939-11.015-43.582-7.344-9.642-17.529-14.463-30.555-14.463Zm111.683 21.264c9.067 0 15.996 2.682 20.785 8.046 4.789 5.364 7.184 12.899 7.184 22.605v71.645H357.22v-70.113c0-8.046-1.597-13.92-4.789-17.624-3.193-3.704-7.918-5.555-14.176-5.555-6.386 0-12.037 1.756-16.954 5.268-4.917 3.512-9.61 8.652-14.08 15.421v72.603H296.11V90.683h9.579l1.149 17.05c4.087-6.003 8.94-10.696 14.559-14.08 5.619-3.385 11.941-5.077 18.965-5.077Zm53.728 68.287c1.146 4.123 1.856 9.97 7.861 17.247 5.356 6.492 12.866 9.483 21.934 9.483 5.236 0 9.866-.798 13.888-2.395 4.023-1.596 8.397-4.118 13.123-7.567l5.172 7.088c-4.981 4.087-10.089 7.152-15.325 9.196-5.236 2.043-11.047 3.065-17.433 3.065-13.282 0-23.69-4.534-31.225-13.602-7.535-9.067-11.302-21.647-11.302-37.738 0-10.6 1.628-19.891 4.884-27.873 3.257-7.982 7.919-14.176 13.985-18.582 6.066-4.406 13.122-6.609 21.168-6.609 12.771 0 22.037 3.886 29.118 12.931 7.033 8.983 9.337 22.253 9.703 28.504l-65.551 26.852Zm54.125-33.612c-1.105-6.664-3.209-12.121-6.227-15.997-4.864-6.248-11.59-9.483-20.785-9.483-8.301 0-15.006 3.193-20.114 9.579-4.99 6.236-7.786 15.64-8.39 28.212-.3 6.243.053 10.369.041 10.673l55.475-22.984Zm74.135-65.709c8.046 0 14.974 1.182 20.785 3.544 5.811 2.363 11.462 6.035 16.953 11.015l-6.704 7.28c-4.981-4.215-9.834-7.28-14.559-9.195-4.726-1.916-10.09-2.874-16.092-2.874-8.173 0-14.751 2.012-19.731 6.035-4.981 4.022-7.471 9.418-7.471 16.187 0 4.597.926 8.397 2.777 11.398 1.852 3.001 4.949 5.683 9.291 8.046 4.343 2.362 10.536 4.757 18.582 7.184 8.685 2.681 15.709 5.555 21.073 8.62 5.363 3.065 9.514 7.024 12.451 11.877 2.938 4.853 4.406 10.983 4.406 18.391 0 7.407-1.788 13.984-5.363 19.731-3.576 5.747-8.653 10.217-15.23 13.409-6.577 3.193-14.208 4.79-22.892 4.79-16.347 0-30.331-5.492-41.953-16.475l6.513-7.28c5.364 4.598 10.792 8.078 16.283 10.441 5.492 2.362 11.813 3.544 18.965 3.544 9.451 0 17.145-2.491 23.084-7.471 5.939-4.981 8.908-11.75 8.908-20.306 0-5.364-.99-9.77-2.969-13.218-1.98-3.449-5.173-6.418-9.579-8.908-4.406-2.491-10.632-5.013-18.677-7.567-13.41-4.087-22.988-8.812-28.735-14.176-5.747-5.364-8.621-12.643-8.621-21.839 0-6.13 1.628-11.653 4.885-16.57 3.257-4.917 7.79-8.748 13.601-11.494 5.811-2.746 12.484-4.119 20.019-4.119Zm125.476 133.33h-9.578l-.575-17.815c-7.918 13.282-18.838 19.923-32.758 19.923-9.067 0-16.06-2.65-20.977-7.95-4.916-5.3-7.375-12.867-7.375-22.701V90.683h11.111v70.497c0 7.79 1.628 13.505 4.885 17.145 3.257 3.64 8.205 5.459 14.846 5.459 11.622 0 21.392-6.832 29.31-20.497V90.683h11.111v100.189ZM763.149 88.576c8.045 0 14.399 2.746 19.061 8.237 4.661 5.492 6.992 12.963 6.992 22.414v71.645h-11.111v-70.113c0-7.918-1.501-13.761-4.502-17.528-3.001-3.768-7.184-5.651-12.548-5.651-5.619 0-10.663 1.788-15.133 5.363-4.47 3.576-8.812 8.685-13.027 15.326v72.603H721.77v-70.113c0-7.918-1.5-13.761-4.501-17.528-3.002-3.768-7.184-5.651-12.548-5.651-5.747 0-10.855 1.788-15.325 5.363-4.47 3.576-8.748 8.685-12.835 15.326v72.603H665.45V90.683h9.578l.958 17.05c3.831-6.003 8.365-10.696 13.601-14.08 5.236-3.385 10.983-5.077 17.241-5.077 6.386 0 11.75 1.756 16.092 5.268 4.342 3.512 7.279 8.397 8.812 14.655 3.959-6.258 8.588-11.143 13.888-14.655 5.3-3.512 11.143-5.268 17.529-5.268Z" style="fill:#fff"/></svg>