<svg xmlns="http://www.w3.org/2000/svg" xml:space="preserve" fill="currentColor" style="fill-rule:evenodd;clip-rule:evenodd;stroke-linejoin:round;stroke-miterlimit:2" viewBox="0 0 820 237">
  <path d="M1489.63 255.95a975.67 975.67 0 0 0-20.25 15.27c-.38 10.8-1.21 18.58-2.5 29.31-1.34 11.02-1.32 28.94 1.64 32.34 3.32 3.82 9.02 5.62 11.99 3.23 2.88-2.32 4.91-22.36 6.22-33.16a361.86 361.86 0 0 0 2.9-46.99Zm-7.57-93.74a168.1 168.1 0 0 0-19.65 3.88l.08.66c3.05 25.2 6.04 44.44 6.9 69.75 6.77-5.05 13.45-9.92 19.33-14.26-1.32-21.49-3.88-36.93-6.46-58.35l-.2-1.68Zm-22.13-22.98a383.31 383.31 0 0 1 19.64-4.93c-.01-5.3-.08-31.4-3.45-32.7-4.32-1.67-17.71 1.26-19.6 5.48-2.76 6.14 1.15 10.1 3.25 30.87l.16 1.28Zm32.34 154.17a396.3 396.3 0 0 1-1.05 9.72c-.35 2.89-.75 6.44-1.21 10.13 20.77 3.57 36.08 4.72 46.8 3.36 4.53-.58 8.59-2.94 9.01-7.5.42-4.54-2.23-6.94-6.78-7.36-7.02-.65-25.95-4.59-46.77-8.35Zm-30.59 15.72c.15-3.12.39-6.14.71-8.76.45-3.73.84-7.47 1.18-11.2-6.78-1.36-11.52-2.99-16.16-4.02a95.22 95.22 0 0 1 6.35-6.15c19.27-16.77 51.54-38.83 64.13-49.03 3.53-2.86 5.83-5.19 6.79-6.52a11.52 11.52 0 0 0 1.94-4.22c.01-.05.92-7.5-6.71-12.05-4.95-2.97-15.31-10.9-30.02-19.9.92 8.26 1.75 16.53 2.43 24.8 3.96 2.4 4.59 4.6 7.74 6.5-17.77 13.6-54.32 38.88-69.06 54.4-5.04 5.31-7.87 10.16-8.67 13.53a12.77 12.77 0 0 0 1.61 10.22c.55.84 3 3.72 8.5 5.32 5.1 1.49 15.63 4.4 29.24 7.08Zm.16-112.17c-.87-8.43-1.85-16.86-2.86-25.28-4.14-2.66-8.12-6.76-3.73-8.1 28.4-8.68 51.44-7.65 66.83-7.38a11.65 11.65 0 0 0 .41-23.27c-20.58-.36-59.56 9.02-79.15 16.08-4.31 1.56-6.67 3.22-7.29 3.79-1.72 1.55-4.84 5.92-3.73 9.52 3.34 10.87 10.75 22.86 29.52 34.64Zm755.97 70.4c-3.53 3.29-4.24 13.52-.67 19.67 4.76 8.18 14.88 9.37 20.22 1.36 3.9-5.86 5.18-15.07 1.01-21.14-3.72-5.43-17.02-3.2-20.56.1Z" transform="translate(-1421.92 -101.12)"/>
  <path d="M2171.27 189.8c8.3 0 14.95 2.78 19.93 8.34 4.98 5.55 7.47 13.06 7.47 22.5v72.42h-17.63v-69.92c0-13.03-4.72-19.54-14.17-19.54-4.98 0-9.2 1.43-12.65 4.3-3.44 2.88-7.15 7.38-11.11 13.51v71.65h-17.62v-69.92c0-13.03-4.73-19.54-14.18-19.54-5.11 0-9.38 1.47-12.83 4.4-3.45 2.94-7.09 7.4-10.92 13.41v71.65h-17.63V192.1h15.14l1.53 14.75c7.54-11.36 17.24-17.05 29.12-17.05 6.26 0 11.59 1.6 16 4.8 4.4 3.19 7.56 7.66 9.48 13.4 3.96-5.87 8.33-10.37 13.12-13.5 4.79-3.13 10.44-4.7 16.95-4.7Zm-108.9 103.26h-15.14l-1.34-15.71c-3.83 6.26-8.23 10.82-13.22 13.7-4.98 2.87-11.04 4.3-18.19 4.3-8.82 0-15.71-2.68-20.69-8.04-4.98-5.36-7.47-12.96-7.47-22.8v-72.4h17.62v70.49c0 6.9 1.21 11.78 3.64 14.65 2.43 2.88 6.39 4.31 11.88 4.31 9.83 0 18.26-5.8 25.28-17.43V192.1h17.63v100.96ZM1970 189.8c-5.53-5.05-12.63-10.44-20.08-13.32a42.39 42.39 0 0 0-15.42-2.78c-6.9 0-12.58 1.6-17.05 4.8-4.47 3.18-6.71 7.84-6.71 13.98 0 3.83.77 7.05 2.3 9.67 1.54 2.62 4.38 5.01 8.53 7.18 4.15 2.17 10.18 4.47 18.1 6.9 8.3 2.55 15.2 5.3 20.69 8.24 5.49 2.93 9.93 6.99 13.31 12.16 3.39 5.17 5.08 11.72 5.08 19.64 0 7.66-1.88 14.43-5.65 20.3-3.77 5.88-9.2 10.48-16.28 13.8-7.09 3.32-15.49 4.98-25.2 4.98-15.2 0-28.1-3.94-38.71-11.82v-19.98c5 4.8 11.2 9.87 20.13 13.5 5.49 2.24 11.62 3.35 18.39 3.35 8.18 0 14.95-2 20.31-6.03 5.36-4.02 8.04-9.87 8.04-17.53 0-4.34-.83-7.95-2.49-10.82-1.66-2.88-4.5-5.46-8.52-7.76s-9.87-4.6-17.53-6.9c-13.54-4.08-23.43-9-29.69-14.75-6.26-5.74-9.39-13.53-9.39-23.37 0-6.64 1.76-12.58 5.27-17.81 3.51-5.24 8.43-9.33 14.75-12.26 6.32-2.94 13.51-4.41 21.55-4.41 8.81 0 16.35 1.24 22.61 3.73a59.2 59.2 0 0 1 13.66 7.8v19.51Zm-122.36 90.54c3.93 0 10.32-1.14 15.61-3.29 8.93-3.63 15.13-8.7 20.13-13.5v19.98c-8.91 6.62-20.46 11.38-37.59 11.8-10.6.27-23.27-3.69-31.88-13.78-7.86-9.2-11.79-21.83-11.79-37.93 0-10.47 1.7-19.76 5.08-27.87 3.39-8.1 8.24-14.46 14.56-19.06 6.32-4.6 13.76-6.9 22.32-6.9 13.41 0 23.69 4.4 30.84 13.22 4.91 6.05 8.14 13.7 9.68 22.94l-60.34 39.16a24.57 24.57 0 0 0 5.07 7.6c4.75 5.12 11.03 7.63 18.31 7.63Zm17.82-62.98a24.65 24.65 0 0 0-3.18-5.73c-3.96-5.23-9.9-7.85-17.82-7.85-14.43 0-22.29 10.6-23.56 30.91-.3 4.72-.28 8.96-.18 11.7l44.74-29.03Zm-100.21-27.57c9.19 0 16.38 2.75 21.55 8.24 5.17 5.5 7.76 13.03 7.76 22.6v72.42h-17.63v-69.92c0-7.16-1.34-12.2-4.02-15.14-2.68-2.94-6.64-4.4-11.88-4.4a22.96 22.96 0 0 0-14.17 4.6c-4.09 3.06-7.92 7.47-11.5 13.21v71.65h-17.62V192.1h15.13l1.54 14.94a39.83 39.83 0 0 1 13.31-12.64 34.38 34.38 0 0 1 17.53-4.6Zm-110.82-31.03c11.11 0 20.85 2.65 29.21 7.95 8.37 5.3 14.88 13.06 19.54 23.28 4.66 10.21 6.99 22.6 6.99 37.16 0 14.3-2.33 26.56-6.99 36.78-4.66 10.22-11.17 18-19.54 23.37-8.36 5.36-18.1 8.05-29.21 8.05s-20.85-2.62-29.22-7.86c-8.36-5.23-14.87-12.96-19.54-23.18-4.66-10.21-6.99-22.54-6.99-36.97 0-14.18 2.33-26.44 6.99-36.78 4.67-10.34 11.21-18.23 19.64-23.66s18.13-8.14 29.12-8.14Zm0 14.94c-11.5 0-20.44 4.34-26.82 13.03-6.39 8.68-9.58 22.22-9.58 40.61 0 18.26 3.23 31.67 9.67 40.23 6.45 8.56 15.36 12.83 26.73 12.83 24.26 0 36.4-17.75 36.4-53.25 0-35.63-12.14-53.45-36.4-53.45Z" transform="translate(-1431.92 -101.12)"/>
</svg>