<?xml version="1.0" encoding="UTF-8" standalone="no"?>
<!DOCTYPE svg PUBLIC "-//W3C//DTD SVG 1.1//EN" "http://www.w3.org/Graphics/SVG/1.1/DTD/svg11.dtd">
<svg width="100%" height="100%" viewBox="0 0 32 32" version="1.1" xmlns="http://www.w3.org/2000/svg" xmlns:xlink="http://www.w3.org/1999/xlink" xml:space="preserve" xmlns:serif="http://www.serif.com/" style="fill-rule:evenodd;clip-rule:evenodd;stroke-linejoin:round;stroke-miterlimit:2;">
    <g transform="matrix(1,0,0,1,-1174.59,-524.557)">
        <g id="Favicon" transform="matrix(0.173104,0,0,0.158605,931.951,405.992)">
            <rect x="1401.69" y="747.548" width="184.86" height="201.759" style="fill:none;"/>
            <clipPath id="_clip1">
                <rect x="1401.69" y="747.548" width="184.86" height="201.759"/>
            </clipPath>
            <g clip-path="url(#_clip1)">
                <g transform="matrix(2.63472,0,0,2.87557,-1910.7,539.359)">
                    <path d="M1271.18,79.226C1263.19,86.672 1258.57,116.994 1266.84,130.759C1274.39,143.312 1305.27,145.793 1315.22,138.484C1323.53,132.378 1329.02,94.707 1318.6,80.259C1309.91,68.205 1279.17,71.779 1271.18,79.226Z" style="fill-opacity:0.7;"/>
                </g>
                <g transform="matrix(2.62568,0,0,2.84872,-1900.19,541.303)">
                    <path d="M1271.18,79.226C1263.19,86.672 1258.57,116.994 1266.84,130.759C1274.39,143.312 1305.27,145.793 1315.22,138.484C1323.53,132.378 1329.02,94.707 1318.6,80.259C1309.91,68.205 1279.17,71.779 1271.18,79.226Z" style="fill:rgb(0,150,125);"/>
                </g>
                <g transform="matrix(5.0716,0,0,5.53522,-5692.8,-3374.35)">
                    <path d="M1417.92,769.52C1416.9,770.275 1415.83,771.068 1414.83,771.845C1414.78,773.49 1414.65,774.229 1414.45,775.309C1414.25,776.419 1414.25,778.223 1414.7,778.566C1415.21,778.95 1416.08,779.132 1416.53,778.891C1416.97,778.658 1417.28,776.64 1417.48,775.552C1417.78,773.881 1417.92,772.064 1417.92,769.52ZM1417.14,755.195C1416.2,755.323 1415.2,755.512 1414.15,755.786L1414.16,755.885C1414.62,759.724 1414.7,760.704 1414.84,764.557C1415.87,763.789 1416.88,763.047 1417.78,762.386C1417.58,759.114 1417.56,758.712 1417.17,755.45L1417.14,755.195ZM1412.97,749.809C1413.59,749.594 1414.92,749.324 1415.92,749.099C1415.92,748.577 1415.95,747.238 1415.44,747.111C1414.78,746.947 1412.74,747.234 1412.45,747.649C1412.03,748.253 1412.63,747.642 1412.95,749.683L1412.97,749.809ZM1419.32,774.223C1419.27,774.717 1419.22,775.21 1419.16,775.703C1419.11,776.143 1418.99,776.684 1418.92,777.246C1422.08,777.789 1423.47,777.965 1425.1,777.757C1425.79,777.669 1426.41,777.31 1426.48,776.617C1426.54,775.923 1426.14,775.559 1425.44,775.495C1424.37,775.396 1422.49,774.796 1419.32,774.223ZM1412.66,776.616C1412.68,776.141 1412.72,775.682 1412.77,775.282C1412.84,774.714 1412.9,773.863 1412.95,773.294C1411.92,773.088 1412.19,773.122 1411.49,772.965C1411.78,772.655 1412.12,772.317 1412.45,772.028C1415.39,769.474 1420.3,766.116 1422.22,764.562C1422.76,764.127 1423.11,763.772 1423.26,763.569C1423.43,763.319 1423.51,763.093 1423.55,762.925C1423.55,762.919 1423.69,761.785 1422.53,761.091C1421.78,760.639 1420.89,760.136 1418.65,758.764C1418.79,760.023 1418.92,761.282 1419.02,762.542C1419.62,762.908 1419.48,762.861 1418.86,763.334C1416.16,765.404 1411.23,768.748 1408.99,771.112C1408.22,771.921 1407.79,772.659 1407.67,773.171C1407.52,773.79 1407.64,774.307 1407.91,774.728C1408,774.857 1408.37,775.294 1409.21,775.539C1409.99,775.765 1410.59,776.209 1412.66,776.616ZM1413.01,758.785C1412.88,757.501 1412.73,756.218 1412.58,754.935C1412.41,754.785 1412.3,754.566 1412.68,754.45C1417.01,753.13 1420.52,753.286 1422.86,753.327C1423.84,753.344 1424.64,752.565 1424.66,751.587C1424.68,750.609 1423.9,749.802 1422.92,749.784C1419.79,749.729 1413.85,751.158 1410.87,752.233C1410.21,752.47 1409.85,752.724 1409.76,752.809C1409.5,753.046 1409.02,753.712 1409.19,754.259C1409.7,755.915 1410.15,756.99 1413.01,758.785Z" style="fill:white;"/>
                </g>
            </g>
        </g>
    </g>
</svg>
